<?xml version="1.0" encoding="UTF-8" standalone="no"?>
<!-- Created with Inkscape (http://www.inkscape.org/) -->

<svg
   xmlns:dc="http://purl.org/dc/elements/1.1/"
   xmlns:cc="http://creativecommons.org/ns#"
   xmlns:rdf="http://www.w3.org/1999/02/22-rdf-syntax-ns#"
   xmlns:svg="http://www.w3.org/2000/svg"
   xmlns="http://www.w3.org/2000/svg"
   xmlns:sodipodi="http://sodipodi.sourceforge.net/DTD/sodipodi-0.dtd"
   xmlns:inkscape="http://www.inkscape.org/namespaces/inkscape"
   version="1.1"
   id="svg80"
   width="213.33333"
   height="213.33333"
   viewBox="0 0 213.33333 213.33333"
   sodipodi:docname="logo.svg"
   inkscape:version="0.92.4 (5da689c313, 2019-01-14)">
  <metadata
     id="metadata86">
    <rdf:RDF>
      <cc:Work
         rdf:about="">
        <dc:format>image/svg+xml</dc:format>
        <dc:type
           rdf:resource="http://purl.org/dc/dcmitype/StillImage" />
        <dc:title />
      </cc:Work>
    </rdf:RDF>
  </metadata>
  <defs
     id="defs84" />
  <sodipodi:namedview
     pagecolor="#ffffff"
     bordercolor="#666666"
     borderopacity="1"
     objecttolerance="10"
     gridtolerance="10"
     guidetolerance="10"
     inkscape:pageopacity="0"
     inkscape:pageshadow="2"
     inkscape:window-width="1918"
     inkscape:window-height="1078"
     id="namedview82"
     showgrid="false"
     inkscape:zoom="2.5576644"
     inkscape:cx="-39.218698"
     inkscape:cy="56.214478"
     inkscape:window-x="0"
     inkscape:window-y="0"
     inkscape:window-maximized="1"
     inkscape:current-layer="svg80" />
  <path
     style="fill:#d70429;stroke-width:1.0666666"
     d="M 91.160892,213.08497 C 68.938852,209.44566 49.848042,199.56151 33.537162,183.25063 10.313742,160.0272 -0.67680839,128.87196 2.9556316,96.56023 5.7938716,71.313173 15.718732,50.621596 33.537162,32.803165 56.760582,9.5797426 87.915832,-1.410807 120.22755,2.2216324 145.4746,5.059871 166.16619,14.984735 183.98462,32.803165 c 23.22343,23.223423 34.21398,54.378666 30.58153,86.690395 -2.83823,25.24705 -12.76309,45.93864 -30.58153,63.75707 -24.69006,24.69006 -58.29123,35.48976 -92.823728,29.83434 z M 102.36089,159.13346 V 115.3067 l -4.868838,-4.4399 c -8.25257,-7.52553 -8.53583,-18.074867 -0.68202,-25.400818 7.326548,-6.834137 16.575158,-6.834137 23.901708,0 7.85381,7.325951 7.57056,17.875288 -0.68201,25.400818 l -4.86885,4.4399 v 43.72526 43.72527 l 4.53334,-0.57613 c 2.49333,-0.31687 8.61333,-1.60462 13.6,-2.86167 l 9.06666,-2.28555 0.28079,-37.29658 0.28078,-37.29657 9.31922,-9.36289 9.31921,-9.36288 -0.35705,-6.24269 c -0.57227,-10.00557 3.89091,-16.617417 12.89554,-19.103716 12.99456,-3.587967 24.71863,8.610187 21.1201,21.974106 -2.19926,8.16747 -13.10984,14.60786 -20.76618,12.25807 -3.55649,-1.09152 -3.72228,-0.99177 -11.71664,7.04976 l -8.1091,8.15694 v 31.17639 c 0,17.14703 0.36641,31.17641 0.81424,31.17641 1.74392,0 12.26158,-7.7977 18.92406,-14.03013 7.33959,-6.86582 16.77214,-20.12341 20.75386,-29.16987 10.94735,-24.87234 10.99983,-52.55935 0.14722,-77.663106 -7.25387,-16.779292 -24.63698,-35.783917 -39.81187,-43.525573 l -4.02751,-2.05468 0.0411,9.888345 0.0411,9.888346 3.38579,2.133333 c 8.20565,5.17027 10.94601,16.45076 5.85676,24.108924 -2.75595,4.147148 -10.41273,8.424409 -15.08059,8.424409 -8.04418,0 -16.27497,-7.467834 -17.38954,-15.777637 -0.79415,-5.92084 2.71097,-13.432611 7.61916,-16.328515 l 3.79289,-2.237903 V 31.207259 18.598344 l -5.06667,-1.66694 c -6.14535,-2.021828 -17.99171,-3.788006 -25.6,-3.816712 l -5.6,-0.02113 v 27.270123 c 0,16.758153 -0.42564,28.065442 -1.10419,29.333333 -0.94747,1.770358 -2.29058,2.06321 -9.462498,2.06321 -8.27781,0 -8.38183,0.03432 -10.79962,3.562854 -3.98594,5.817102 -8.32814,8.170479 -15.07528,8.170479 -7.54568,0 -12.24477,-2.961592 -15.67763,-9.880784 -3.66566,-7.388415 -2.57884,-13.568513 3.44554,-19.5929 3.4649,-3.464893 5.55137,-4.620561 9.37815,-5.194422 6.55947,-0.983652 13.66846,2.07917 17.09302,7.36432 2.10401,3.247142 3.06075,3.812664 6.46918,3.823915 l 4,0.0132 v -22.4 c 0,-25.568267 0.86687,-23.827574 -10.13333,-20.348081 -15.6538,4.951488 -30.02778,13.723446 -40.68291,24.827428 C 0.41740161,84.271195 6.6023816,150.6631 54.211572,185.23408 c 3.7312,2.70938 7.2112,4.92615 7.73333,4.92615 0.52213,0 0.94932,-8.97977 0.94932,-19.95503 v -19.95502 l -3.8958,-3.98967 c -3.82486,-3.91701 -4.01426,-3.97995 -10.4,-3.45609 -5.45901,0.44784 -7.18983,0.13828 -10.77086,-1.92636 -4.80101,-2.76802 -9.06667,-9.94335 -9.06667,-15.25117 0,-4.38132 4.08145,-12.1512 7.81155,-14.87089 4.28687,-3.12563 15.33754,-3.10552 19.5769,0.0356 5.91728,4.38441 8.00589,8.79987 7.63309,16.13689 l -0.33712,6.63496 5.32446,5.40352 5.32445,5.40352 0.53334,26.20386 0.53333,26.20386 4.8,1.62975 c 4.1852,1.42099 17.22106,4.17831 21.066668,4.45596 1.04659,0.0755 1.33333,-9.32885 1.33333,-43.7305 z M 50.551372,129.81737 c 4.27947,-4.27948 -0.78398,-11.70867 -6.27499,-9.20681 -3.42915,1.56243 -4.37017,5.02671 -2.24602,8.26856 1.97545,3.01493 6.00107,3.45819 8.52101,0.93825 z m 61.479638,-27.16134 c 1.39305,-0.74554 2.06321,-2.23533 2.06321,-4.58666 0,-4.203514 -1.62315,-6.042476 -5.33334,-6.042476 -3.70656,0 -5.33333,1.838345 -5.33333,6.026996 0,4.89807 4.02626,7.05178 8.60346,4.60214 z m 70.32987,-3.16247 c 2.38195,-2.38194 2.66776,-4.475024 1.02915,-7.536789 -2.27289,-4.24691 -10.62915,-1.616153 -10.62915,3.346314 0,2.442455 3.60078,6.323815 5.86667,6.323815 0.88,0 2.56,-0.96001 3.73333,-2.13334 z M 71.390032,69.697018 c 1.7569,-3.282804 1.29296,-6.216938 -1.26648,-8.009639 -3.13313,-2.194531 -4.66194,-2.094537 -7.22933,0.472849 -2.56243,2.562433 -2.74003,5.640914 -0.45714,7.923809 2.37859,2.378591 7.59348,2.15316 8.95295,-0.387019 z M 149.05687,64.76641 c 3.0431,-2.131464 3.22398,-7.407783 0.30747,-8.968652 -3.2828,-1.756905 -6.21694,-1.292961 -8.00964,1.266477 -2.19453,3.133132 -2.09453,4.661941 0.47285,7.229326 2.56738,2.567386 4.09619,2.667381 7.22932,0.472849 z"
     id="path3794"
     inkscape:connector-curvature="0" />
</svg>
